HIERARCHY
ROOT Hips
{
	OFFSET 0.00 0.00 0.00
	CHANNELS 6 Xposition Yposition Zposition Yrotation Xrotation Zrotation
	JOINT Chest
	{
		OFFSET	0.0000	9.2263	1.5771
		CHANNELS 3 Yrotation Xrotation Zrotation
		JOINT Chest2
		{
			OFFSET	0.0000	16.2540	-0.1656
			CHANNELS 3 Yrotation Xrotation Zrotation
			JOINT Chest3
			{
				OFFSET	0.0000	13.6396	-1.2923
				CHANNELS 3 Yrotation Xrotation Zrotation
				JOINT Neck
				{
					OFFSET	0.0000	13.8774	-4.3542
					CHANNELS 3 Yrotation Xrotation Zrotation
					JOINT Head
					{
						OFFSET	0.0000	4.0266	0.8585
						CHANNELS 3 Yrotation Xrotation Zrotation
						End Site
						{
							OFFSET 0.0000 17.8866 0.1231
						}
					}
				}
				JOINT LeftCollar
				{
					OFFSET	6.1442	10.1870	-3.7932
					CHANNELS 3 Yrotation Xrotation Zrotation
					JOINT LeftShoulder
					{
						OFFSET	12.3191	-1.1130	-1.7935
						CHANNELS 3 Yrotation Xrotation Zrotation
						JOINT LeftElbow
						{
							OFFSET	27.6870	0.0000	0.0000
							CHANNELS 3 Yrotation Xrotation Zrotation
							JOINT LeftHand
							{
								OFFSET	27.8738	0.0000	0.0000
								CHANNELS 3 Yrotation Xrotation Zrotation
								JOINT LeftFinger0
								{
									OFFSET	3.1460	-1.0029	4.0023
									CHANNELS 3 Yrotation Xrotation Zrotation
									JOINT LeftFinger01
									{
										OFFSET	4.3298	-1.0029	2.0796
										CHANNELS 3 Yrotation Xrotation Zrotation
										End Site
										{
											OFFSET 3.7362 -2.0137 1.7261
										}
									}
								}
								JOINT LeftFinger1
								{
									OFFSET	11.5739	0.0000	0.0000
									CHANNELS 3 Yrotation Xrotation Zrotation
									JOINT LeftFinger11
									{
										OFFSET	4.0578	0.0000	0.0000
										CHANNELS 3 Yrotation Xrotation Zrotation
										End Site
										{
											OFFSET 4.0431 0.0000 0.0000
										}
									}
								}
							}
						}
					}
				}
				JOINT RightCollar
				{
					OFFSET	-6.1402	10.1870	-3.7932
					CHANNELS 3 Yrotation Xrotation Zrotation
					JOINT RightShoulder
					{
						OFFSET	-12.3231	-1.1130	-1.7935
						CHANNELS 3 Yrotation Xrotation Zrotation
						JOINT RightElbow
						{
							OFFSET	-27.6870	0.0000	0.0000
							CHANNELS 3 Yrotation Xrotation Zrotation
							JOINT RightHand
							{
								OFFSET	-27.8738	0.0000	0.0000
								CHANNELS 3 Yrotation Xrotation Zrotation
								JOINT RightFinger0
								{
									OFFSET	-3.1758	-1.0029	3.9820
									CHANNELS 3 Yrotation Xrotation Zrotation
									JOINT RightFinger01
									{
										OFFSET	-4.2938	-1.0019	2.1232
										CHANNELS 3 Yrotation Xrotation Zrotation
										End Site
										{
											OFFSET -3.7424 -2.0137 1.7029
										}
									}
								}
								JOINT RightFinger1
								{
									OFFSET	-11.5739	0.0000	0.0000
									CHANNELS 3 Yrotation Xrotation Zrotation
									JOINT RightFinger11
									{
										OFFSET	-4.0578	0.0000	0.0000
										CHANNELS 3 Yrotation Xrotation Zrotation
										End Site
										{
											OFFSET -4.0431 0.0000 0.0000
										}
									}
								}
							}
						}
					}
				}
			}
		}
	}
	JOINT LeftHip
	{
		OFFSET	9.6338	-3.2733	0.0000
		CHANNELS 3 Yrotation Xrotation Zrotation
		JOINT LeftKnee
		{
			OFFSET	0.0000	-46.7251	-1.7300
			CHANNELS 3 Yrotation Xrotation Zrotation
			JOINT LeftAnkle
			{
				OFFSET	0.0126	-34.1943	-0.8477
				CHANNELS 3 Yrotation Xrotation Zrotation
				JOINT LeftToe
				{
					OFFSET	-0.1833	-12.0640	8.2823
					CHANNELS 3 Yrotation Xrotation Zrotation
					End Site
					{
						OFFSET 0.0000 0.1809 10.3623
					}
				}
			}
		}
	}
	JOINT RightHip
	{
		OFFSET	-9.6338	-3.2733	0.0000
		CHANNELS 3 Yrotation Xrotation Zrotation
		JOINT RightKnee
		{
			OFFSET	0.0000	-46.7251	-1.7300
			CHANNELS 3 Yrotation Xrotation Zrotation
			JOINT RightAnkle
			{
				OFFSET	0.0126	-34.1943	-0.8477
				CHANNELS 3 Yrotation Xrotation Zrotation
				JOINT RightToe
				{
					OFFSET	-0.1833	-12.0640	8.2823
					CHANNELS 3 Yrotation Xrotation Zrotation
					End Site
					{
						OFFSET 0.0032 0.1809 10.3623
					}
				}
			}
		}
	}
}
MOTION
Frames: 5
Frame Time: 0.0333333
-0.0051 85.2055 0.0157 5.7608 -13.2717 -0.6623 -15.2413 14.5564 -5.0285 -1.1604 15.7982 3.2302 -2.4243 15.8705 2.7317 7.4606 -8.2895 -1.3113 0.0981 -7.1608 5.7397 -39.2753 -58.4559 18.1444 -2.1658 -2.0016 -66.7592 94.0771 -69.4485 -170.4935 24.3257 9.7217 104.0652 0.0000 -0.0000 0.0000 0.0000 -0.0000 0.0000 0.0000 -0.0000 0.0000 0.0000 -0.0000 0.0000 -35.4955 9.0438 -0.0609 85.9637 -4.3685 22.4550 112.3646 -37.5101 -21.8544 7.5286 -19.8612 -110.7563 0.0000 -0.0000 0.0000 0.0000 -0.0000 0.0000 0.0000 -0.0000 0.0000 0.0000 -0.0000 0.0000 15.0944 -15.3481 7.1344 -65.1858 79.8447 -66.7856 -4.6943 -22.5244 1.9086 0.1311 1.6160 -0.5095 -2.5648 -18.3165 6.1972 7.7184 61.4859 3.1983 3.8832 -29.4126 -5.8202 0.9322 -0.6677 0.9987 
3.7568 85.9239 3.7693 4.2532 -12.8765 -0.6342 -14.3022 14.2504 -4.5493 -1.0532 15.7778 3.2230 -2.3172 15.8496 2.7283 7.6943 -8.1520 -1.3168 0.5376 -6.6358 5.4374 -37.8166 -58.6862 17.5106 -2.5933 -1.8249 -67.2360 94.9732 -68.7934 -171.1758 23.6795 10.1491 103.4827 0.0000 -0.0000 0.0000 0.0000 -0.0000 0.0000 0.0000 -0.0000 0.0000 0.0000 -0.0000 0.0000 -34.5346 8.7624 -0.0434 85.1272 -5.0851 22.6756 112.3008 -39.3269 -20.8728 9.5273 -19.8517 -110.5474 0.0000 -0.0000 0.0000 0.0000 -0.0000 0.0000 0.0000 -0.0000 0.0000 0.0000 -0.0000 0.0000 7.8086 -24.8931 11.8602 -52.5232 80.3203 -55.6850 -4.7386 -24.1413 0.2121 1.7221 2.7665 -1.8062 -0.3648 -15.2005 3.4097 11.0833 60.2045 6.1603 3.3984 -32.2014 -4.2605 0.9322 -0.6676 0.9987 
7.3579 86.2929 7.3051 2.5327 -12.4384 -0.6462 -13.2296 13.5267 -4.2743 -0.9375 15.8407 3.2509 -2.2024 15.9174 2.7412 7.9254 -8.0023 -1.2975 0.7146 -6.3592 5.4429 -36.2232 -58.8977 16.6339 -3.5825 -1.8486 -67.4857 96.4409 -70.2437 -172.5921 25.2619 10.4279 103.1767 0.0000 -0.0000 0.0000 0.0000 -0.0000 0.0000 0.0000 -0.0000 0.0000 0.0000 -0.0000 0.0000 -33.7516 8.5011 -0.0347 84.7168 -5.4612 22.7062 112.1159 -38.9487 -20.3344 9.1911 -19.1588 -110.9599 0.0000 -0.0000 0.0000 0.0000 -0.0000 0.0000 0.0000 -0.0000 0.0000 0.0000 -0.0000 0.0000 0.5403 -31.9679 17.8298 -33.0648 74.9165 -36.4791 -2.1169 -24.1434 -2.4568 2.0430 5.0645 -2.3346 1.7854 -12.3766 0.8805 13.8831 58.8061 8.5365 2.9471 -34.6724 -2.7144 0.9322 -0.6676 0.9987 
10.9502 86.3150 10.7824 0.7362 -11.9868 -0.6853 -12.0863 12.6451 -4.1666 -0.7802 15.8979 3.3405 -2.0356 15.9831 2.8119 8.1298 -7.8478 -1.2609 0.7633 -6.2637 5.6623 -36.5686 -58.4258 17.9092 -3.3105 -1.9860 -67.6689 96.8212 -67.0136 -172.5730 22.7762 9.8406 103.1657 0.0000 -0.0000 0.0000 0.0000 -0.0000 0.0000 0.0000 -0.0000 0.0000 0.0000 -0.0000 0.0000 -32.8467 8.2569 -0.0167 84.0236 -5.9495 22.6744 111.9639 -38.9312 -19.7293 8.8768 -18.4734 -111.3381 0.0000 -0.0000 0.0000 0.0000 -0.0000 0.0000 0.0000 -0.0000 0.0000 0.0000 -0.0000 0.0000 -4.9812 -34.7752 23.5235 -15.2273 64.2666 -18.3134 -2.1665 -22.8085 -2.9658 1.0111 6.0849 -4.9355 3.9697 -9.6922 -1.5569 13.8517 57.6429 8.3984 3.6447 -37.1014 -0.9657 0.9322 -0.6677 0.9987 
14.6787 86.0717 14.3520 -0.9886 -11.5508 -0.7268 -10.9531 11.6987 -4.2258 -0.5753 15.9900 3.4973 -1.8055 16.0876 2.9419 8.3078 -7.6867 -1.1646 0.7909 -6.2912 5.9709 -36.4796 -58.1739 18.4504 -3.4028 -2.0070 -68.0982 97.8677 -66.3003 -173.2765 22.1975 9.8732 102.8919 0.0000 -0.0000 0.0000 0.0000 -0.0000 0.0000 0.0000 -0.0000 0.0000 0.0000 -0.0000 0.0000 -31.8517 8.0053 0.0046 83.0973 -6.4054 22.7728 111.7488 -38.8484 -19.1820 8.5239 -17.9780 -111.6016 0.0000 -0.0000 0.0000 0.0000 -0.0000 0.0000 0.0000 -0.0000 0.0000 0.0000 -0.0000 0.0000 -4.4660 -34.5004 26.3413 -10.0053 48.7643 -11.9631 -3.1424 -19.3319 -0.7993 -0.0311 4.9302 -5.1776 6.1596 -6.8086 -4.0410 14.4790 56.1477 8.7378 3.5116 -39.4753 1.1420 0.9322 -0.6676 0.9987 
